<svg xmlns="http://www.w3.org/2000/svg" viewBox="0 0 1400 1000" style="font-family: -apple-system, BlinkMacSystemFont, 'Segoe UI', sans-serif;">
  <!-- Background -->
  <rect width="1400" height="1000" fill="#f8f9fa"/>

  <!-- Title -->
  <text x="700" y="40" font-size="32" font-weight="bold" text-anchor="middle" fill="#1a1a1a">
    Solidity Security Platform - Sprint Burndown
  </text>
  <text x="700" y="70" font-size="16" text-anchor="middle" fill="#666">
    18 Sprints × 36 Weeks | Phase 1-3: Foundation → Launch | Target: $8M ARR by Month 36
  </text>

  <!-- Main Chart Area -->
  <g transform="translate(120, 140)">
    <!-- Grid Lines -->
    <line x1="0" y1="0" x2="0" y2="450" stroke="#333" stroke-width="2"/>
    <line x1="0" y1="450" x2="1000" y2="450" stroke="#333" stroke-width="2"/>

    <!-- Y-axis labels (Tasks Remaining) -->
    <text x="-15" y="5" text-anchor="end" font-size="13" fill="#333">280</text>
    <line x1="-5" y1="0" x2="1000" y2="0" stroke="#ddd" stroke-dasharray="5,5"/>

    <text x="-15" y="80" text-anchor="end" font-size="13" fill="#333">240</text>
    <line x1="-5" y1="75" x2="1000" y2="75" stroke="#ddd" stroke-dasharray="5,5"/>

    <text x="-15" y="155" text-anchor="end" font-size="13" fill="#333">200</text>
    <line x1="-5" y1="150" x2="1000" y2="150" stroke="#ddd" stroke-dasharray="5,5"/>

    <text x="-15" y="230" text-anchor="end" font-size="13" fill="#333">160</text>
    <line x1="-5" y1="225" x2="1000" y2="225" stroke="#ddd" stroke-dasharray="5,5"/>

    <text x="-15" y="305" text-anchor="end" font-size="13" fill="#333">120</text>
    <line x1="-5" y1="300" x2="1000" y2="300" stroke="#ddd" stroke-dasharray="5,5"/>

    <text x="-15" y="380" text-anchor="end" font-size="13" fill="#333">80</text>
    <line x1="-5" y1="375" x2="1000" y2="375" stroke="#ddd" stroke-dasharray="5,5"/>

    <text x="-15" y="455" text-anchor="end" font-size="13" fill="#333">40</text>

    <!-- Y-axis title -->
    <text x="-70" y="225" text-anchor="middle" font-size="15" font-weight="bold" fill="#333" transform="rotate(-90, -70, 225)">
      Story Points Remaining
    </text>

    <!-- Pilot Customer Milestone Lines -->
    <line x1="278" y1="0" x2="278" y2="450" stroke="#9b59b6" stroke-width="2" stroke-dasharray="8,4"/>
    <text x="278" y="-10" text-anchor="middle" font-size="11" font-weight="bold" fill="#9b59b6">Sprint 6</text>

    <line x1="611" y1="0" x2="611" y2="450" stroke="#9b59b6" stroke-width="2" stroke-dasharray="8,4"/>
    <text x="611" y="-10" text-anchor="middle" font-size="11" font-weight="bold" fill="#9b59b6">Sprint 12</text>

    <line x1="945" y1="0" x2="945" y2="450" stroke="#9b59b6" stroke-width="2" stroke-dasharray="8,4"/>
    <text x="945" y="-10" text-anchor="middle" font-size="11" font-weight="bold" fill="#9b59b6">Sprint 18</text>

    <!-- X-axis Sprint Labels -->
    <text x="0" y="475" text-anchor="middle" font-size="12" font-weight="bold" fill="#333">Sprint 1</text>
    <text x="0" y="490" text-anchor="middle" font-size="10" fill="#666">Foundation</text>
    <text x="0" y="503" text-anchor="middle" font-size="9" fill="#999">(Month 1)</text>

    <text x="111" y="475" text-anchor="middle" font-size="12" font-weight="bold" fill="#333">Sprint 3</text>
    <text x="111" y="490" text-anchor="middle" font-size="10" fill="#666">Services</text>
    <text x="111" y="503" text-anchor="middle" font-size="9" fill="#999">(Month 2)</text>

    <text x="194.5" y="475" text-anchor="middle" font-size="12" font-weight="bold" fill="#f59e0b">Sprint 4</text>
    <text x="194.5" y="490" text-anchor="middle" font-size="10" fill="#f59e0b">Security Tools</text>
    <text x="194.5" y="503" text-anchor="middle" font-size="9" fill="#f59e0b">(Month 2)</text>

    <text x="278" y="475" text-anchor="middle" font-size="12" font-weight="bold" fill="#9b59b6">Sprint 6</text>
    <text x="278" y="490" text-anchor="middle" font-size="10" fill="#9b59b6">Alpha</text>
    <text x="278" y="503" text-anchor="middle" font-size="9" fill="#9b59b6">(Month 3)</text>

    <text x="444" y="475" text-anchor="middle" font-size="12" font-weight="bold" fill="#333">Sprint 9</text>
    <text x="444" y="490" text-anchor="middle" font-size="10" fill="#666">Enterprise</text>
    <text x="444" y="503" text-anchor="middle" font-size="9" fill="#999">(Month 5)</text>

    <text x="527.5" y="475" text-anchor="middle" font-size="12" font-weight="bold" fill="#2563eb">Sprint 10</text>
    <text x="527.5" y="490" text-anchor="middle" font-size="10" fill="#2563eb">3 Pilots</text>
    <text x="527.5" y="503" text-anchor="middle" font-size="9" fill="#2563eb">(Month 5)</text>

    <text x="611" y="475" text-anchor="middle" font-size="12" font-weight="bold" fill="#9b59b6">Sprint 12</text>
    <text x="611" y="490" text-anchor="middle" font-size="10" fill="#9b59b6">Beta</text>
    <text x="611" y="503" text-anchor="middle" font-size="9" fill="#9b59b6">(Month 6)</text>

    <text x="778" y="475" text-anchor="middle" font-size="12" font-weight="bold" fill="#333">Sprint 15</text>
    <text x="778" y="490" text-anchor="middle" font-size="10" fill="#666">Ops Ready</text>
    <text x="778" y="503" text-anchor="middle" font-size="9" fill="#999">(Month 8)</text>

    <text x="945" y="475" text-anchor="middle" font-size="12" font-weight="bold" fill="#9b59b6">Sprint 18</text>
    <text x="945" y="490" text-anchor="middle" font-size="10" fill="#9b59b6">Production</text>
    <text x="945" y="503" text-anchor="middle" font-size="9" fill="#9b59b6">(Month 9)</text>

    <!-- Month range indicators -->
    <text x="83.5" y="525" text-anchor="middle" font-size="11" font-weight="bold" fill="#999">Months 1-3</text>
    <text x="361" y="525" text-anchor="middle" font-size="11" font-weight="bold" fill="#999">Months 4-6</text>
    <text x="639" y="525" text-anchor="middle" font-size="11" font-weight="bold" fill="#999">Months 7-9</text>

    <!-- Ideal Burndown Line -->
    <line x1="0" y1="0" x2="1000" y2="450" stroke="#999" stroke-width="2" stroke-dasharray="10,5" opacity="0.5"/>
    <text x="1010" y="455" font-size="12" fill="#999">Ideal</text>

    <!-- Actual Burndown Line -->
    <polyline points="0,0 111,37 194.5,65 278,93 444,149 527.5,183 611,217 778,285 945,380"
              fill="none" stroke="#2563eb" stroke-width="4"/>

    <!-- Revenue Annotations (inside chart - positioned top right of data points) -->
    <text x="204.5" y="55" text-anchor="start" font-size="11" font-weight="bold" fill="#f59e0b">Current</text>

    <text x="288" y="60" text-anchor="start" font-size="11" font-weight="bold" fill="#2563eb">MVP Ready</text>
    <text x="288" y="73" text-anchor="start" font-size="10" fill="#6b7280">Alpha Ready (Sprint 6)</text>
    <text x="288" y="86" text-anchor="start" font-size="10" fill="#6b7280">0 Customers</text>

    <text x="537.5" y="168" text-anchor="start" font-size="11" font-weight="bold" fill="#2563eb">3 Pilot Customers</text>
    <text x="537.5" y="181" text-anchor="start" font-size="11" font-weight="bold" fill="#2563eb">$0 ARR</text>

    <text x="621" y="202" text-anchor="start" font-size="11" font-weight="bold" fill="#27ae60">10 Customers</text>
    <text x="621" y="215" text-anchor="start" font-size="11" font-weight="bold" fill="#27ae60">$50k ARR</text>

    <text x="920" y="365" text-anchor="end" font-size="11" font-weight="bold" fill="#27ae60">20 Customers</text>
    <text x="920" y="378" text-anchor="end" font-size="11" font-weight="bold" fill="#27ae60">$200k ARR</text>

    <!-- Sprint Completion Markers -->
    <circle cx="0" cy="0" r="6" fill="#16a34a"/>
    <circle cx="111" cy="37" r="6" fill="#16a34a"/>
    <circle cx="194.5" cy="65" r="10" fill="#f59e0b"/>
    <circle cx="278" cy="93" r="6" fill="#6b7280"/>
    <circle cx="444" cy="149" r="6" fill="#6b7280"/>
    <circle cx="527.5" cy="183" r="6" fill="#2563eb"/>
    <circle cx="611" cy="217" r="6" fill="#6b7280"/>
    <circle cx="778" cy="285" r="6" fill="#6b7280"/>
    <circle cx="945" cy="380" r="6" fill="#6b7280"/>

    <!-- Progress Zones -->
    <rect x="0" y="0" width="194.5" height="450" fill="#2563eb" opacity="0.08"/>
    <rect x="194.5" y="0" width="805.5" height="450" fill="#6b7280" opacity="0.02"/>
  </g>

  <!-- Sprint Details Panel -->
  <g transform="translate(120, 650)">
    <rect width="1000" height="140" fill="white" stroke="#ddd" stroke-width="2" rx="10"/>

    <!-- Phase 1: Sprint 1-6 -->
    <g transform="translate(30, 25)">
      <rect width="8" height="90" fill="#f59e0b" rx="2"/>
      <text x="20" y="15" font-size="15" font-weight="bold" fill="#f59e0b">→ Phase 1: Foundation</text>
      <text x="20" y="35" font-size="11" fill="#666">• Sprint 1-2: AWS Infrastructure + Repos ✓</text>
      <text x="20" y="50" font-size="11" fill="#666">• Sprint 3: Core Services ✓</text>
      <text x="20" y="65" font-size="11" fill="#666">• Sprint 4: Tool Integration (CURRENT)</text>
      <text x="20" y="80" font-size="11" fill="#666">• Sprint 5-6: Frontend + Mythril</text>
      <text x="20" y="95" font-size="11" fill="#666">Target: Platform ready, 0 customers</text>
    </g>

    <!-- Phase 2: Sprint 7-12 -->
    <g transform="translate(350, 25)">
      <rect width="8" height="90" fill="#6b7280" rx="2"/>
      <text x="20" y="15" font-size="15" font-weight="bold" fill="#6b7280">○ Phase 2: Advanced Features</text>
      <text x="20" y="35" font-size="11" fill="#666">• Sprint 7: 5 Pilots (post-S6 acquisition)</text>
      <text x="20" y="50" font-size="11" fill="#666">• Sprint 8-10: Enterprise + Collaboration</text>
      <text x="20" y="65" font-size="11" fill="#666">• Sprint 11: Advanced Analytics + AI</text>
      <text x="20" y="80" font-size="11" fill="#666">• Sprint 12: Global + Multi-Tenancy</text>
      <text x="20" y="95" font-size="11" fill="#666">Result: 10 Paying Customers, $50k ARR</text>
    </g>

    <!-- Phase 3: Sprint 13-18 -->
    <g transform="translate(670, 25)">
      <rect width="8" height="90" fill="#6b7280" rx="2"/>
      <text x="20" y="15" font-size="15" font-weight="bold" fill="#6b7280">○ Phase 3: Production Ready</text>
      <text x="20" y="35" font-size="11" fill="#666">• Sprint 13: Extended Tool Ecosystem</text>
      <text x="20" y="50" font-size="11" fill="#666">• Sprint 14: Security Hardening</text>
      <text x="20" y="65" font-size="11" fill="#666">• Sprint 15-17: Ops + Testing + UAT</text>
      <text x="20" y="80" font-size="11" fill="#666">• Sprint 18: Production Launch</text>
      <text x="20" y="95" font-size="11" fill="#666">Target: 20 Customers, $200k ARR</text>
    </g>
  </g>

  <!-- Pilot Customers & Revenue Panel -->
  <g transform="translate(120, 820)">
    <rect width="480" height="140" fill="#eff6ff" stroke="#2563eb" stroke-width="2" rx="10"/>
    <text x="240" y="25" font-size="16" font-weight="bold" text-anchor="middle" fill="#2563eb">Pilot Customer Milestones</text>

    <g transform="translate(30, 45)">
      <circle cx="6" cy="0" r="5" fill="#9b59b6"/>
      <text x="20" y="5" font-size="13" font-weight="bold" fill="#333">Sprint 6 (Month 3) - Alpha Ready</text>
      <text x="20" y="20" font-size="11" fill="#666">Platform ready for pilots | 0 customers yet</text>
      <text x="20" y="35" font-size="11" fill="#666">Capability: 5-tool analysis ready</text>
    </g>

    <g transform="translate(30, 90)">
      <circle cx="6" cy="0" r="5" fill="#9b59b6"/>
      <text x="20" y="5" font-size="13" font-weight="bold" fill="#333">Sprint 12 (Month 6) - First Revenue</text>
      <text x="20" y="20" font-size="11" fill="#666">10 Paying Customers | $50k ARR</text>
    </g>

    <g transform="translate(270, 90)">
      <circle cx="6" cy="0" r="5" fill="#9b59b6"/>
      <text x="20" y="5" font-size="13" font-weight="bold" fill="#333">Sprint 18 (Month 9) - Production</text>
      <text x="20" y="20" font-size="11" fill="#666">20 Customers | $200k ARR</text>
    </g>
  </g>

  <!-- Revenue Tracker -->
  <g transform="translate(620, 820)">
    <rect width="500" height="140" fill="#dcfce7" stroke="#16a34a" stroke-width="2" rx="10"/>
    <text x="250" y="25" font-size="16" font-weight="bold" text-anchor="middle" fill="#16a34a">Revenue Trajectory</text>

    <g transform="translate(30, 50)">
      <text x="0" y="0" font-size="13" fill="#333">Sprint 6 (M3):</text>
      <text x="110" y="0" font-size="18" font-weight="bold" fill="#6b7280">$0 ARR</text>
      <text x="200" y="0" font-size="11" fill="#666">(alpha ready)</text>

      <text x="0" y="25" font-size="13" fill="#333">Sprint 12 (M6):</text>
      <text x="110" y="25" font-size="18" font-weight="bold" fill="#27ae60">$50k ARR</text>
      <text x="200" y="25" font-size="11" fill="#666">(10 customers)</text>

      <text x="0" y="50" font-size="13" fill="#333">Sprint 18 (M9):</text>
      <text x="110" y="50" font-size="18" font-weight="bold" fill="#27ae60">$200k ARR</text>
      <text x="200" y="50" font-size="11" fill="#666">(20 customers)</text>

      <text x="0" y="75" font-size="11" fill="#999">Month 12: $400k | M24: $3M | M36: $8M ARR</text>
    </g>

    <!-- Mini Revenue Chart -->
    <g transform="translate(280, 45)">
      <rect x="0" y="60" width="30" height="5" fill="#9b59b6" opacity="0.3"/>
      <text x="15" y="73" font-size="9" text-anchor="middle" fill="#333">S6</text>

      <rect x="45" y="40" width="30" height="25" fill="#9b59b6" opacity="0.5"/>
      <text x="60" y="73" font-size="9" text-anchor="middle" fill="#333">S12</text>

      <rect x="90" y="15" width="30" height="50" fill="#9b59b6" opacity="0.7"/>
      <text x="105" y="73" font-size="9" text-anchor="middle" fill="#333">S18</text>

      <rect x="135" y="0" width="30" height="65" fill="#16a34a" opacity="0.4"/>
      <text x="150" y="73" font-size="9" text-anchor="middle" fill="#333">M12</text>
    </g>
  </g>

  <!-- Velocity & Health Metrics -->
  <g transform="translate(1150, 140)">
    <rect width="200" height="450" fill="white" stroke="#ddd" stroke-width="2" rx="10"/>

    <text x="100" y="30" font-size="15" font-weight="bold" text-anchor="middle" fill="#333">Sprint Health</text>

    <!-- Velocity -->
    <g transform="translate(20, 50)">
      <rect width="160" height="60" fill="#eff6ff" rx="5"/>
      <text x="80" y="20" font-size="12" text-anchor="middle" fill="#666">Velocity</text>
      <text x="80" y="45" font-size="24" font-weight="bold" text-anchor="middle" fill="#2563eb">15.5</text>
      <text x="80" y="58" font-size="10" text-anchor="middle" fill="#666">pts/sprint avg</text>
    </g>

    <!-- Completion Rate -->
    <g transform="translate(20, 125)">
      <rect width="160" height="60" fill="#dcfce7" rx="5"/>
      <text x="80" y="20" font-size="12" text-anchor="middle" fill="#666">Progress</text>
      <text x="80" y="45" font-size="24" font-weight="bold" text-anchor="middle" fill="#f59e0b">22%</text>
      <text x="80" y="58" font-size="10" text-anchor="middle" fill="#666">Sprint 4 of 18</text>
    </g>

    <!-- On Track Status -->
    <g transform="translate(20, 200)">
      <rect width="160" height="60" fill="#fef3c7" rx="5"/>
      <text x="80" y="20" font-size="12" text-anchor="middle" fill="#666">Status</text>
      <text x="80" y="45" font-size="16" font-weight="bold" text-anchor="middle" fill="#f59e0b">In Progress</text>
      <text x="80" y="58" font-size="10" text-anchor="middle" fill="#666">Tool Integration</text>
    </g>

    <!-- Key Deliverables -->
    <g transform="translate(20, 275)">
      <rect width="160" height="160" fill="#eff6ff" stroke="#2563eb" stroke-width="2" rx="5"/>
      <text x="80" y="20" font-size="13" font-weight="bold" text-anchor="middle" fill="#2563eb">Sprint 4: Current</text>
      <text x="10" y="40" font-size="10" fill="#333">✓ AWS Infrastructure</text>
      <text x="10" y="55" font-size="10" fill="#333">✓ Shared Library</text>
      <text x="10" y="70" font-size="10" fill="#333">✓ Core Services</text>
      <text x="10" y="85" font-size="10" fill="#f59e0b">→ Tool Integration</text>
      <text x="10" y="100" font-size="10" fill="#666">○ Frontend (Sprint 5)</text>
      <text x="10" y="115" font-size="10" fill="#666">○ Mythril (Sprint 6)</text>
      <text x="10" y="135" font-size="11" font-weight="bold" fill="#6b7280">Sprint 6: MVP Ready</text>
      <text x="10" y="150" font-size="10" fill="#666">2 sprints remaining</text>
    </g>
  </g>

  <!-- Footer -->
  <text x="700" y="985" font-size="11" text-anchor="middle" fill="#999">
    Solidity Security Platform | 18 Sprints → $8M ARR by Month 36 | Bootstrap to Profitability
  </text>
</svg>
