<svg xmlns="http://www.w3.org/2000/svg" viewBox="0 0 1400 1000" style="font-family: -apple-system, BlinkMacSystemFont, 'Segoe UI', sans-serif;">
  <!-- Background -->
  <rect width="1400" height="1000" fill="#f8f9fa"/>

  <!-- Title -->
  <text x="700" y="40" font-size="32" font-weight="bold" text-anchor="middle" fill="#1a1a1a">
    Solidity Security Platform - Phase Burndown
  </text>
  <text x="700" y="70" font-size="16" text-anchor="middle" fill="#666">
    3 Phases × 9 Months | Foundation → Expansion → Production | Target: $8M ARR by Month 36
  </text>

  <!-- Main Chart Area -->
  <g transform="translate(120, 140)">
    <!-- Grid Lines -->
    <line x1="0" y1="0" x2="0" y2="450" stroke="#333" stroke-width="2"/>
    <line x1="0" y1="450" x2="1000" y2="450" stroke="#333" stroke-width="2"/>

    <!-- Y-axis labels (Story Points Remaining) -->
    <text x="-15" y="5" text-anchor="end" font-size="13" fill="#333">280</text>
    <line x1="-5" y1="0" x2="1000" y2="0" stroke="#ddd" stroke-dasharray="5,5"/>

    <text x="-15" y="80" text-anchor="end" font-size="13" fill="#333">240</text>
    <line x1="-5" y1="75" x2="1000" y2="75" stroke="#ddd" stroke-dasharray="5,5"/>

    <text x="-15" y="155" text-anchor="end" font-size="13" fill="#333">200</text>
    <line x1="-5" y1="150" x2="1000" y2="150" stroke="#ddd" stroke-dasharray="5,5"/>

    <text x="-15" y="230" text-anchor="end" font-size="13" fill="#333">160</text>
    <line x1="-5" y1="225" x2="1000" y2="225" stroke="#ddd" stroke-dasharray="5,5"/>

    <text x="-15" y="305" text-anchor="end" font-size="13" fill="#333">120</text>
    <line x1="-5" y1="300" x2="1000" y2="300" stroke="#ddd" stroke-dasharray="5,5"/>

    <text x="-15" y="380" text-anchor="end" font-size="13" fill="#333">80</text>
    <line x1="-5" y1="375" x2="1000" y2="375" stroke="#ddd" stroke-dasharray="5,5"/>

    <text x="-15" y="455" text-anchor="end" font-size="13" fill="#333">40</text>
    <line x1="-5" y1="450" x2="1000" y2="450" stroke="#ddd" stroke-dasharray="5,5"/>

    <!-- Y-axis title -->
    <text x="-70" y="225" text-anchor="middle" font-size="15" font-weight="bold" fill="#333" transform="rotate(-90, -70, 225)">
      Story Points Remaining
    </text>

    <!-- Phase Milestone Lines -->
    <line x1="333" y1="0" x2="333" y2="450" stroke="#16a34a" stroke-width="2" stroke-dasharray="8,4"/>
    <text x="333" y="-10" text-anchor="middle" font-size="11" font-weight="bold" fill="#16a34a">Phase 1 End</text>

    <line x1="500" y1="0" x2="500" y2="450" stroke="#f59e0b" stroke-width="2" stroke-dasharray="8,4"/>
    <text x="500" y="-10" text-anchor="middle" font-size="11" font-weight="bold" fill="#f59e0b">Phase 2 End</text>

    <line x1="1000" y1="0" x2="1000" y2="450" stroke="#9b59b6" stroke-width="2" stroke-dasharray="8,4"/>
    <text x="1000" y="-10" text-anchor="middle" font-size="11" font-weight="bold" fill="#9b59b6">Phase 3 End</text>

    <!-- X-axis Phase Labels -->
    <text x="167" y="475" text-anchor="middle" font-size="14" font-weight="bold" fill="#16a34a">Phase 1: Foundation</text>
    <text x="167" y="490" text-anchor="middle" font-size="11" fill="#666">Infrastructure + Core Platform</text>
    <text x="167" y="505" text-anchor="middle" font-size="10" fill="#999">Months 1-3 (Complete ✓)</text>

    <text x="417" y="475" text-anchor="middle" font-size="14" font-weight="bold" fill="#f59e0b">Phase 2: Expansion</text>
    <text x="417" y="490" text-anchor="middle" font-size="11" fill="#f59e0b">37 Tools + 5 Languages</text>
    <text x="417" y="505" text-anchor="middle" font-size="10" fill="#f59e0b">Weeks 1-6 (Week 3 Current)</text>

    <text x="750" y="475" text-anchor="middle" font-size="14" font-weight="bold" fill="#6b7280">Phase 3: Production Ready</text>
    <text x="750" y="490" text-anchor="middle" font-size="11" fill="#666">AWS Launch + Vuln Testing + Pilots</text>
    <text x="750" y="505" text-anchor="middle" font-size="10" fill="#999">Months 4-9 (Pending)</text>

    <!-- Ideal Burndown Line -->
    <line x1="0" y1="0" x2="1000" y2="450" stroke="#999" stroke-width="2" stroke-dasharray="10,5" opacity="0.5"/>
    <text x="1010" y="455" font-size="12" fill="#999">Ideal</text>

    <!-- Actual Burndown Line -->
    <polyline points="0,0 333,93 388,122 500,180 1000,450"
              fill="none" stroke="#2563eb" stroke-width="4"/>

    <!-- Current Position Marker -->
    <text x="398" y="112" text-anchor="start" font-size="12" font-weight="bold" fill="#f59e0b">← Current</text>
    <text x="398" y="127" text-anchor="start" font-size="10" fill="#6b7280">Phase 2 Week 3</text>
    <text x="398" y="140" text-anchor="start" font-size="9" fill="#999">(Oct 14, 2025)</text>

    <!-- Phase 1 Complete Annotation -->
    <text x="333" y="60" text-anchor="middle" font-size="11" font-weight="bold" fill="#16a34a">Phase 1 Complete</text>
    <text x="333" y="75" text-anchor="middle" font-size="10" fill="#6b7280">10 tools, 5 languages</text>

    <!-- Phase 3 End - Pilot Customers -->
    <text x="1000" y="420" text-anchor="end" font-size="11" font-weight="bold" fill="#9b59b6">Pilot Customers Start</text>
    <text x="1000" y="435" text-anchor="end" font-size="10" fill="#6b7280">Production Launch</text>

    <!-- Completion Markers -->
    <circle cx="0" cy="0" r="6" fill="#16a34a"/>
    <circle cx="333" cy="93" r="8" fill="#16a34a"/>
    <circle cx="388" cy="122" r="10" fill="#f59e0b"/>
    <circle cx="500" cy="180" r="6" fill="#6b7280"/>
    <circle cx="1000" cy="450" r="6" fill="#6b7280"/>

    <!-- Progress Zones -->
    <rect x="0" y="0" width="388" height="450" fill="#16a34a" opacity="0.08"/>
    <rect x="388" y="0" width="112" height="450" fill="#f59e0b" opacity="0.08"/>
    <rect x="500" y="0" width="500" height="450" fill="#6b7280" opacity="0.02"/>
  </g>

  <!-- Phase Details Panel -->
  <g transform="translate(120, 650)">
    <rect width="1000" height="140" fill="white" stroke="#ddd" stroke-width="2" rx="10"/>

    <!-- Phase 1: Foundation -->
    <g transform="translate(30, 25)">
      <rect width="8" height="90" fill="#16a34a" rx="2"/>
      <text x="20" y="15" font-size="15" font-weight="bold" fill="#16a34a">✓ Phase 1: Foundation (Months 1-3)</text>
      <text x="20" y="35" font-size="11" fill="#666">• AWS Infrastructure + Kubernetes ✓</text>
      <text x="20" y="50" font-size="11" fill="#666">• Core Services (API, Data, Orchestration) ✓</text>
      <text x="20" y="65" font-size="11" fill="#666">• Tool Integration (Slither, Aderyn, Mythril) ✓</text>
      <text x="20" y="80" font-size="11" fill="#666">• Frontend Dashboard ✓</text>
      <text x="20" y="95" font-size="11" fill="#16a34a">✓ Complete: MVP operational</text>
    </g>

    <!-- Phase 2: Expansion -->
    <g transform="translate(360, 25)">
      <rect width="8" height="90" fill="#f59e0b" rx="2"/>
      <text x="20" y="15" font-size="15" font-weight="bold" fill="#f59e0b">→ Phase 2: Expansion (Weeks 1-6)</text>
      <text x="20" y="35" font-size="11" fill="#666">• Week 1-2: 5 Languages Complete ✓</text>
      <text x="20" y="50" font-size="11" fill="#f59e0b">• Week 3: Fuzzing Tools (CURRENT)</text>
      <text x="20" y="65" font-size="11" fill="#666">• Week 4-5: Additional Static Analysis</text>
      <text x="20" y="80" font-size="11" fill="#666">• Week 6: Formal Verification + Plugins</text>
      <text x="20" y="95" font-size="11" fill="#f59e0b">Target: 37 tools, industry-leading</text>
    </g>

    <!-- Phase 3: Production Ready -->
    <g transform="translate(690, 25)">
      <rect width="8" height="90" fill="#6b7280" rx="2"/>
      <text x="20" y="15" font-size="15" font-weight="bold" fill="#6b7280">○ Phase 3: Production Ready (Months 4-9)</text>
      <text x="20" y="35" font-size="11" fill="#666">• Security Hardening (TLS, Vault, NetworkPolicies)</text>
      <text x="20" y="50" font-size="11" fill="#666">• Operational Readiness (Backups, Monitoring)</text>
      <text x="20" y="65" font-size="11" fill="#666">• Load Testing + Performance Optimization</text>
      <text x="20" y="80" font-size="11" fill="#666">• Production Launch + Customer Onboarding</text>
      <text x="20" y="95" font-size="11" fill="#9b59b6">🎯 Pilot customers start at Phase 3 completion</text>
    </g>
  </g>

  <!-- Pilot Customers & Revenue Panel -->
  <g transform="translate(120, 820)">
    <rect width="480" height="170" fill="#eff6ff" stroke="#2563eb" stroke-width="2" rx="10"/>
    <text x="240" y="25" font-size="16" font-weight="bold" text-anchor="middle" fill="#2563eb">Customer and Revenue Milestones</text>

    <g transform="translate(30, 45)">
      <circle cx="6" cy="0" r="5" fill="#16a34a"/>
      <text x="20" y="5" font-size="13" font-weight="bold" fill="#333">Phase 1 End (Month 3) - MVP Ready</text>
      <text x="20" y="20" font-size="11" fill="#666">Platform operational | 0 customers</text>
      <text x="20" y="35" font-size="11" fill="#666">Capability: 10 tools, 5 languages</text>
    </g>

    <g transform="translate(30, 90)">
      <circle cx="6" cy="0" r="5" fill="#f59e0b"/>
      <text x="20" y="5" font-size="13" font-weight="bold" fill="#333">Phase 2 End (Month 4) - Industry-Leading</text>
      <text x="20" y="20" font-size="11" fill="#666">37 tools operational | 0 customers (pre-launch)</text>
    </g>

    <g transform="translate(30, 125)">
      <circle cx="6" cy="0" r="5" fill="#9b59b6"/>
      <text x="20" y="5" font-size="13" font-weight="bold" fill="#333">Phase 3 End (Month 9) - Launch</text>
      <text x="20" y="20" font-size="11" fill="#9b59b6">🎯 Pilot customers begin | Production ready</text>
    </g>
  </g>

  <!-- Revenue Tracker -->
  <g transform="translate(620, 820)">
    <rect width="500" height="140" fill="#dcfce7" stroke="#16a34a" stroke-width="2" rx="10"/>
    <text x="250" y="25" font-size="16" font-weight="bold" text-anchor="middle" fill="#16a34a">Post-Launch Revenue Trajectory</text>

    <g transform="translate(30, 50)">
      <text x="0" y="0" font-size="13" fill="#333">Phase 3 End (M9):</text>
      <text x="130" y="0" font-size="18" font-weight="bold" fill="#9b59b6">Launch</text>
      <text x="200" y="0" font-size="11" fill="#666">(pilot customers start)</text>

      <text x="0" y="25" font-size="13" fill="#333">Month 12:</text>
      <text x="130" y="25" font-size="18" font-weight="bold" fill="#27ae60">$400k ARR</text>
      <text x="200" y="25" font-size="11" fill="#666">(early adopters)</text>

      <text x="0" y="50" font-size="13" fill="#333">Month 24:</text>
      <text x="130" y="50" font-size="18" font-weight="bold" fill="#27ae60">$3M ARR</text>
      <text x="200" y="50" font-size="11" fill="#666">(market traction)</text>

      <text x="0" y="75" font-size="13" fill="#333">Month 36:</text>
      <text x="130" y="75" font-size="18" font-weight="bold" fill="#27ae60">$8M ARR</text>
      <text x="200" y="75" font-size="11" fill="#666">(target achievement)</text>
    </g>

    <!-- Mini Revenue Chart -->
    <g transform="translate(320, 45)">
      <rect x="0" y="60" width="25" height="5" fill="#9b59b6" opacity="0.3"/>
      <text x="12" y="73" font-size="9" text-anchor="middle" fill="#333">P3</text>

      <rect x="35" y="45" width="25" height="20" fill="#27ae60" opacity="0.4"/>
      <text x="47" y="73" font-size="9" text-anchor="middle" fill="#333">M12</text>

      <rect x="70" y="20" width="25" height="45" fill="#27ae60" opacity="0.6"/>
      <text x="82" y="73" font-size="9" text-anchor="middle" fill="#333">M24</text>

      <rect x="105" y="0" width="25" height="65" fill="#16a34a" opacity="0.8"/>
      <text x="117" y="73" font-size="9" text-anchor="middle" fill="#333">M36</text>
    </g>
  </g>

  <!-- Velocity & Health Metrics -->
  <g transform="translate(1150, 140)">
    <rect width="200" height="450" fill="white" stroke="#ddd" stroke-width="2" rx="10"/>

    <text x="100" y="30" font-size="15" font-weight="bold" text-anchor="middle" fill="#333">Phase Health</text>

    <!-- Velocity -->
    <g transform="translate(20, 50)">
      <rect width="160" height="60" fill="#eff6ff" rx="5"/>
      <text x="80" y="20" font-size="12" text-anchor="middle" fill="#666">Velocity</text>
      <text x="80" y="45" font-size="24" font-weight="bold" text-anchor="middle" fill="#2563eb">82%</text>
      <text x="80" y="58" font-size="10" text-anchor="middle" fill="#666">time efficiency</text>
    </g>

    <!-- Completion Rate -->
    <g transform="translate(20, 125)">
      <rect width="160" height="60" fill="#dcfce7" rx="5"/>
      <text x="80" y="20" font-size="12" text-anchor="middle" fill="#666">Progress</text>
      <text x="80" y="45" font-size="24" font-weight="bold" text-anchor="middle" fill="#f59e0b">64%</text>
      <text x="80" y="58" font-size="10" text-anchor="middle" fill="#666">overall complete</text>
    </g>

    <!-- On Track Status -->
    <g transform="translate(20, 200)">
      <rect width="160" height="60" fill="#fef3c7" rx="5"/>
      <text x="80" y="20" font-size="12" text-anchor="middle" fill="#666">Status</text>
      <text x="80" y="45" font-size="16" font-weight="bold" text-anchor="middle" fill="#f59e0b">In Progress</text>
      <text x="80" y="58" font-size="10" text-anchor="middle" fill="#666">Phase 2 Week 3</text>
    </g>

    <!-- Key Deliverables -->
    <g transform="translate(20, 275)">
      <rect width="160" height="160" fill="#eff6ff" stroke="#2563eb" stroke-width="2" rx="5"/>
      <text x="80" y="20" font-size="13" font-weight="bold" text-anchor="middle" fill="#2563eb">Phase 2 Week 3</text>
      <text x="10" y="40" font-size="10" fill="#16a34a">✓ Phase 1 Complete</text>
      <text x="10" y="55" font-size="10" fill="#16a34a">✓ 5 Languages Operational</text>
      <text x="10" y="70" font-size="10" fill="#16a34a">✓ 10 Tools Integrated</text>
      <text x="10" y="85" font-size="10" fill="#16a34a">✓ Week 1-2 Complete</text>
      <text x="10" y="100" font-size="10" fill="#f59e0b">→ Fuzzing Tools (Current)</text>
      <text x="10" y="120" font-size="11" font-weight="bold" fill="#6b7280">Phase 2 Target:</text>
      <text x="10" y="135" font-size="10" fill="#666">37 tools operational</text>
      <text x="10" y="150" font-size="10" fill="#666">3-4 weeks remaining</text>
    </g>
  </g>

  <!-- Footer -->
  <text x="700" y="985" font-size="11" text-anchor="middle" fill="#999">
    Solidity Security Platform | Phase-Based Execution → $8M ARR by Month 36 | Pilot Customers Start at Phase 3 End
  </text>
</svg>
